<?xml version="1.0" standalone="no"?>
<!DOCTYPE svg PUBLIC "-//W3C//DTD SVG 20010904//EN"
 "http://www.w3.org/TR/2001/REC-SVG-20010904/DTD/svg10.dtd">
<svg version="1.0" xmlns="http://www.w3.org/2000/svg"
 width="260.000000pt" height="260.000000pt" viewBox="0 0 260.000000 260.000000"
 preserveAspectRatio="xMidYMid meet">
<metadata>
Created by potrace 1.11, written by Peter Selinger 2001-2013
</metadata>
<g transform="translate(0.000000,260.000000) scale(0.100000,-0.100000)"
fill="#000000" stroke="none">
<path d="M1684 2009 c-213 -53 -379 -203 -449 -406 -117 -338 21 -693 326
-838 41 -19 86 -38 100 -41 203 -44 369 -24 512 59 50 29 160 134 155 147 -2
5 -25 25 -52 44 l-49 35 -40 -45 c-77 -87 -166 -131 -288 -141 -184 -15 -367
70 -466 217 -134 199 -126 482 18 675 109 145 317 224 488 184 71 -16 151 -59
202 -108 l48 -46 38 28 c21 16 47 35 58 43 19 15 18 17 -37 69 -136 128 -356
176 -564 124z"/>
<path d="M823 1588 c-1 -578 -2 -589 -46 -670 -80 -147 -314 -123 -367 38 -12
36 -12 36 -58 29 -81 -12 -92 -19 -82 -56 26 -90 83 -159 168 -200 40 -20 62
-24 157 -24 91 0 118 4 156 21 102 48 180 156 195 272 4 31 7 270 8 529 l1
473 -66 0 -66 0 0 -412z"/>
</g>
</svg>
